<?xml version="1.0" standalone="no"?><!DOCTYPE svg PUBLIC "-//W3C//DTD SVG 1.1//EN" "http://www.w3.org/Graphics/SVG/1.1/DTD/svg11.dtd"><svg t="1618924225355" class="icon" viewBox="0 0 1024 1024" version="1.1" xmlns="http://www.w3.org/2000/svg" p-id="5032" xmlns:xlink="http://www.w3.org/1999/xlink" width="200" height="200"><defs><style type="text/css"></style></defs><path d="M524.8 12.8L401.766 95.232 21.094 484.787l34.56 74.343h82.97v386.022l64.077 53.248h199.065V667.571h203.802V998.4h216.576l55.68-53.248V559.155l89.242-21.606 18.944-52.736z" fill="#cdcdcd" p-id="5033" data-spm-anchor-id="a313x.7781069.0.i0" class="selected"></path><path d="M511.053 0.768v54.374a104.832 104.832 0 0 1 67.251 24.704 65.563 65.563 0 0 0 12.672 12.442L957.542 481.92l1.101 1.152c11.827 13.133 11.11 33.28-1.613 45.517a29.43 29.43 0 0 1-20.53 7.5h-31.796c-30.797 0-55.757 24.346-55.757 54.4v322.56c0 30.772-24.269 55.809-54.118 55.809H616.346V670.31c0-14.412-5.888-28.236-16.333-38.45a56.5 56.5 0 0 0-39.424-15.924H447.642a56.576 56.576 0 0 0-39.45 15.923 53.709 53.709 0 0 0-16.333 38.451v298.548H216.73c-29.849 0-54.118-25.037-54.118-55.808V590.49c0-30.055-24.96-54.4-55.757-54.4H85.94a31.54 31.54 0 0 1-21.99-9.728 29.952 29.952 0 0 1-8.243-22.144 28.8 28.8 0 0 1 8.09-21.146l1.1-1.152L436.019 87.808a102.502 102.502 0 0 1 75.008-32.64V0.768h0.026z m0 0a159.232 159.232 0 0 0-116.02 49.971L24.014 445.184A82.1 82.1 0 0 0 0.103 504.32c-0.41 22.528 8.422 44.288 24.524 60.493a88.064 88.064 0 0 0 61.312 25.702h20.685v322.56c0 60.672 49.357 110.183 109.875 110.183h194.483c9.908 0.025 19.405-3.84 26.317-10.752 6.912-6.938 10.624-16.308 10.343-25.959V670.31h113.05v316.212c-0.308 9.65 3.43 19.02 10.342 25.932 6.912 6.912 16.384 10.804 26.29 10.778H794.83c60.518 0 109.875-49.485 109.875-110.182V590.49h31.846a85.33 85.33 0 0 0 60.519-23.936 85.94 85.94 0 0 0 1.613-121.344L627.558 50.74a12.416 12.416 0 0 1-6.195-6.478A161.28 161.28 0 0 0 511.232 0.768h-0.18z" fill="#cdcdcd" p-id="5034"></path></svg>