<?xml version="1.0" standalone="no"?><!DOCTYPE svg PUBLIC "-//W3C//DTD SVG 1.1//EN" "http://www.w3.org/Graphics/SVG/1.1/DTD/svg11.dtd"><svg t="1618924346484" class="icon" viewBox="0 0 1024 1024" version="1.1" xmlns="http://www.w3.org/2000/svg" p-id="10903" xmlns:xlink="http://www.w3.org/1999/xlink" width="200" height="200"><defs><style type="text/css"></style></defs><path d="M1002.94708937 801.55507696H250.78336677c-22.29071576 0-43.20059146-8.6795705-58.78436571-24.4606081-15.58377539-15.78103759-24.26334589-36.49364994-24.06608368-58.78436686l2.76168241-553.91443301c0-22.09345355-7.69325602-36.88817666-45.96227387-43.0033281h-0.19726221l-110.46726661-18.93724558c-10.65220063-1.77536678-17.95093109-12.03304185-16.17556315-22.68524248 1.77536678-10.65220063 12.03304185-17.95093109 22.68524131-16.17556431l110.27000326 18.93724558c52.47195089 8.28504494 79.10245248 35.90186101 79.10245248 82.06139825L207.18824973 718.70462757c0 11.63851513 4.33978582 22.48797912 12.62483077 30.57576185 8.28504494 8.28504494 19.13450893 12.82209297 30.77302405 12.82209298h752.16372262c10.84946399 0 19.72629785 8.87683386 19.7262967 19.72629785s-8.6795705 19.72629785-19.5290345 19.72629671z" fill="#8a8a8a" p-id="10904"></path><path d="M946.72714158 688.32613023l-696.53556375-2.16989349c-21.89619019-0.19726336-42.41153918-8.6795705-57.7980512-24.26334589-15.38651203-15.58377539-23.67155697-36.09912437-23.67155696-57.99531456l2.16989233-409.1234088L958.95744678 253.55853318c35.70459881 1.38084121 63.71594045 30.37849849 63.71594045 66.0830973V612.57714794c0 41.81975026-34.12649424 75.7489823-75.94624565 75.74898229zM250.58610455 646.70364219l696.33830039 2.16989233c20.12082342 0 36.49364994-16.37282651 36.49364994-36.29638658V319.64163048c0-14.40019754-11.44125292-26.23597603-25.84144931-26.63050159h-0.78905228l-746.24583337-55.62815886-1.77536677 366.90913298c0 11.24398956 4.33978582 21.89619019 12.23030521 29.98397177 7.49599266 7.89051938 18.14819329 12.42756741 29.58944619 12.42756741z" fill="#8a8a8a" p-id="10905"></path><path d="M327.32140135 866.65185861m-73.57908996 0a73.57908995 73.57908995 0 1 0 147.15817991 0 73.57908995 73.57908995 0 1 0-147.15817991 0Z" fill="#8a8a8a" p-id="10906"></path><path d="M327.32140135 959.95724643c-51.4856364 0-93.30538666-41.81975026-93.30538667-93.30538782s41.81975026-93.30538666 93.30538667-93.30538666c51.4856364 0 93.30538666 41.81975026 93.30538664 93.30538666s-41.81975026 93.30538666-93.30538664 93.30538782z m0-147.15817992c-29.78670957 0-53.8527921 24.06608253-53.85279211 53.8527921s24.06608253 53.8527921 53.85279211 53.8527921 53.8527921-24.06608253 53.85279209-53.8527921-24.06608253-53.8527921-53.85279209-53.8527921z" fill="#8a8a8a" p-id="10907"></path><path d="M892.08529836 866.65185861m-73.57908996 0a73.57908995 73.57908995 0 1 0 147.15817875 0 73.57908995 73.57908995 0 1 0-147.15817875 0Z" fill="#8a8a8a" p-id="10908"></path><path d="M892.08529836 959.95724643c-51.4856364 0-93.30538666-41.81975026-93.30538783-93.30538782s41.81975026-93.30538666 93.30538783-93.30538666 93.30538666 41.81975026 93.30538664 93.30538666-41.81975026 93.30538666-93.30538664 93.30538782z m0-147.15817992c-29.78670957 0-53.8527921 24.06608253-53.85279211 53.8527921s24.06608253 53.8527921 53.85279211 53.8527921 53.8527921-24.06608253 53.85279209-53.8527921-24.06608253-53.8527921-53.85279209-53.8527921z" fill="#8a8a8a" p-id="10909"></path><path d="M773.72751352 424.98005898H371.70557065c-10.84946399 0-19.72629785-8.87683386-19.72629785-19.72629785s8.87683386-19.72629785 19.72629785-19.72629786h402.02194287c10.84946399 0 19.72629785 8.87683386 19.72629669 19.72629786s-8.87683386 19.72629785-19.72629669 19.72629785zM773.72751352 538.40626906H371.70557065c-10.84946399 0-19.72629785-8.87683386-19.72629785-19.72629785s8.87683386-19.72629785 19.72629785-19.72629671h402.02194287c10.84946399 0 19.72629785 8.87683386 19.72629669 19.72629671s-8.87683386 19.72629785-19.72629669 19.72629785z" fill="#8a8a8a" p-id="10910"></path></svg>